<?xml version="1.0" encoding="UTF-8" standalone="no"?>
<!-- Uploaded to: SVG Repo, www.svgrepo.com, Generator: SVG Repo Mixer Tools -->

<svg
   width="800px"
   height="800px"
   viewBox="0 0 16 16"
   fill="none"
   version="1.1"
   id="svg1"
   sodipodi:docname="alien-svgrepo-com.svg"
   inkscape:version="1.3.2 (091e20e, 2023-11-25, custom)"
   xmlns:inkscape="http://www.inkscape.org/namespaces/inkscape"
   xmlns:sodipodi="http://sodipodi.sourceforge.net/DTD/sodipodi-0.dtd"
   xmlns="http://www.w3.org/2000/svg"
   xmlns:svg="http://www.w3.org/2000/svg">
  <defs
     id="defs1" />
  <sodipodi:namedview
     id="namedview1"
     pagecolor="#ffffff"
     bordercolor="#000000"
     borderopacity="0.25"
     inkscape:showpageshadow="2"
     inkscape:pageopacity="0.0"
     inkscape:pagecheckerboard="0"
     inkscape:deskcolor="#d1d1d1"
     inkscape:zoom="0.92375"
     inkscape:cx="84.979702"
     inkscape:cy="429.22869"
     inkscape:window-width="2560"
     inkscape:window-height="974"
     inkscape:window-x="-11"
     inkscape:window-y="1132"
     inkscape:window-maximized="1"
     inkscape:current-layer="svg1" />
  <rect
     style="fill:#000080;stroke:#ffffff;stroke-width:0.0676175"
     id="rect1"
     width="17.140352"
     height="18.071339"
     x="-0.51604855"
     y="-0.58100122"
     ry="0.64999169" />
  <circle
     id="path3"
     style="fill:#ffffff;stroke:#ffffff;stroke-width:0.02"
     cx="6.5602169"
     cy="10.132611"
     r="0.0006591308" />
  <circle
     id="path4"
     style="fill:#ffffff;stroke:#ffffff;stroke-width:0.02"
     cx="8.2922869"
     cy="10.717185"
     r="0.0006591308" />
  <circle
     id="path5"
     style="fill:#ffffff;stroke:#ffffff;stroke-width:0.02"
     cx="12.968877"
     cy="10.197564"
     r="0.0006591308" />
  <path
     style="fill:#ffffff;stroke-width:0.0905382"
     d="m 2.8930145,13.232595 c -0.171846,-0.258611 -0.064927,-1.494723 0.1676504,-1.938202 0.1638724,-0.312462 0.7860304,-0.753105 1.2990884,-0.920067 0.1678289,-0.05462 0.3051456,-0.1131 0.3051456,-0.129957 0,-0.01709 -0.143603,-0.3261275 -0.3191183,-0.6872504 C 4.089789,9.0304053 4.026722,8.7933187 4.0269546,8.3585596 4.0272191,7.8633579 4.0949998,7.6769817 4.8125784,6.1983216 5.2445097,5.3082692 5.7132021,4.4363821 5.8541127,4.26079 5.9950264,4.0852069 6.3287375,3.8222369 6.5956982,3.6764122 7.0263529,3.4411776 7.1684655,3.4112844 7.8560836,3.4112844 c 0.687618,0 0.8297308,0.030119 1.2603852,0.2651278 0.2669609,0.1458247 0.6006748,0.4087947 0.7415856,0.5843778 0.1409083,0.1755831 0.6096016,1.0474792 1.0415346,1.9375316 0.71758,1.4786601 0.785359,1.6650363 0.785624,2.160238 2.74e-4,0.4347321 -0.06284,0.6718457 -0.318826,1.198559 -0.175516,0.3611455 -0.319118,0.6703894 -0.319118,0.6872504 0,0.01709 0.137316,0.07534 0.305145,0.129957 0.513058,0.166952 1.135218,0.6076 1.299088,0.920071 0.232573,0.443452 0.339498,1.679587 0.167651,1.938198 l -0.134911,0.203002 H 7.8560827 3.0279231 Z m 4.7631634,-2.74833 c 0.022247,-0.297763 0.063472,-0.375125 0.1999048,-0.375125 0.1370161,0 0.1775531,0.0775 0.1999048,0.382093 0.026851,0.36582 0.039708,0.380878 0.3015669,0.353952 0.4713889,-0.04851 1.1626439,-0.493582 1.4791655,-0.9524358 0.3963811,-0.5746277 0.4800271,-0.9242251 0.4806241,-2.0087493 7.3e-4,-1.3523268 0.137519,-1.281136 -2.4612613,-1.281136 -2.650717,0 -2.4938055,-0.09422 -2.4481,1.4699439 0.02995,1.0245043 0.049382,1.1230304 0.3131188,1.5868016 0.2950068,0.5187526 0.9009971,1.0074406 1.4388199,1.1603086 0.4125926,0.11728 0.4650521,0.08177 0.4962556,-0.335657 z M 6.4387004,9.4389619 C 6.1828039,9.1866455 6.1497386,8.959417 6.35748,8.8808091 6.444464,8.8479935 6.5531408,8.9014863 6.6361799,9.0184975 6.8111667,9.2648353 7.0687174,9.2631721 7.2361078,9.0145641 7.3224752,8.8863157 7.4204352,8.8389362 7.5207614,8.8768756 7.9037718,9.0218014 7.4340529,9.6596319 6.9443161,9.6596319 c -0.1776444,0 -0.3645428,-0.081587 -0.5056157,-0.2206746 z m 1.8235333,0 C 8.0020474,9.18242 7.9739193,8.9591697 8.1914032,8.8768803 c 0.1003258,-0.03776 0.1982864,0.00943 0.284649,0.1376884 0.1673916,0.2485854 0.424938,0.2502934 0.5999289,0.00393 0.083039,-0.11692 0.1917171,-0.1705929 0.2786997,-0.137688 0.3741617,0.1415544 -0.1059981,0.7788275 -0.5868313,0.7788275 -0.1776442,0 -0.3645426,-0.081588 -0.5056158,-0.2206747 z M 6.2495497,8.0906181 C 6.1570414,7.8529109 6.3108161,7.7716376 6.8531394,7.7716376 7.4144,7.7716376 7.58226,7.8699933 7.396885,8.0902583 7.2445925,8.2711908 6.3199371,8.2715053 6.2495497,8.0906269 Z M 8.312174,8.0865719 C 8.1201787,7.8584387 8.32133,7.7590945 8.9141197,7.7892572 c 0.4675238,0.023824 0.5375547,0.050796 0.5375547,0.2071394 0,0.1552199 -0.069755,0.1834498 -0.5096867,0.2063304 C 8.5631989,8.2224981 8.4014513,8.1923757 8.312174,8.086518 Z"
     id="path1-0" />
</svg>
